<svg width="176" height="176" viewBox="0 0 176 176" fill="none" xmlns="http://www.w3.org/2000/svg">
<circle cx="88.0338" cy="87.5592" r="71.4918" transform="rotate(-15 88.0338 87.5592)" fill="#FBE46C" fill-opacity="0.38"/>
<circle cx="88.0337" cy="87.5591" r="58.7604" transform="rotate(-15 88.0337 87.5591)" fill="#FBE46C" fill-opacity="0.38"/>
<circle cx="88.0338" cy="87.5593" r="50.9256" transform="rotate(-15 88.0338 87.5593)" fill="#FBE46C" fill-opacity="0.38"/>
<circle cx="88.0329" cy="87.5591" r="47.4876" transform="rotate(-15 88.0329 87.5591)" stroke="#FFED91"/>
<circle cx="88.0333" cy="87.5593" r="36.7149" transform="rotate(-15 88.0333 87.5593)" fill="#FFED91" stroke="black"/>
<path d="M119.713 79.0707C124.975 98.7087 114.983 118.348 97.5354 123.023C80.0881 127.698 61.6149 115.686 56.3529 96.0479C51.0909 76.4098 61.0831 56.7704 78.5303 52.0954C95.9776 47.4204 114.451 59.4326 119.713 79.0707Z" fill="#FFED91" stroke="black"/>
<path d="M115.929 80.0845C121.207 99.7833 112.841 118.922 97.5349 123.023C82.2285 127.124 65.4146 114.733 60.1363 95.034C54.858 75.3352 63.2234 56.1968 78.5299 52.0954C93.8363 47.9941 110.65 60.3858 115.929 80.0845Z" fill="#FFED91" stroke="black"/>
<path d="M112.145 81.0984C114.782 90.9402 114.434 100.561 111.764 108.152C109.092 115.745 104.121 121.258 97.5355 123.023C90.9496 124.788 83.888 122.499 77.7778 117.258C71.6699 112.019 66.5578 103.862 63.9207 94.0201C61.2836 84.1783 61.6321 74.5579 64.3024 66.9669C66.9736 59.3732 71.9446 53.86 78.5305 52.0954C85.1163 50.3307 92.1779 52.6198 98.2881 57.8605C104.396 63.0993 109.508 71.2565 112.145 81.0984Z" fill="#FFED91" stroke="black"/>
<path d="M108.362 82.1122C111.003 91.9691 111.074 101.489 109.077 108.904C107.077 116.334 103.038 121.549 97.536 123.023C92.0341 124.497 85.9286 122.001 80.4816 116.567C75.0452 111.143 70.3463 102.863 67.7052 93.0062C65.064 83.1492 64.9933 73.6291 66.9897 66.214C68.99 58.7845 73.029 53.5696 78.531 52.0953C84.033 50.6211 90.1384 53.1178 95.5854 58.5518C101.022 63.9753 105.721 72.2553 108.362 82.1122Z" fill="#FFED91" stroke="black"/>
<path d="M104.578 83.1262C107.223 92.9974 107.715 102.419 106.392 109.662C105.062 116.946 101.942 121.842 97.5356 123.023C93.1289 124.204 87.9787 121.524 83.1847 115.88C78.4181 110.269 74.1336 101.864 71.4886 91.9923C68.8436 82.1211 68.3516 72.7 69.6739 65.457C71.0038 58.1725 74.1239 53.2762 78.5306 52.0954C82.9373 50.9146 88.0875 53.5949 92.8814 59.2386C97.6481 64.85 101.933 73.255 104.578 83.1262Z" fill="#FFED91" stroke="black"/>
<path d="M100.793 84.1401C103.442 94.0248 104.357 103.348 103.71 110.423C103.386 113.962 102.674 116.911 101.613 119.08C100.552 121.251 99.1725 122.584 97.5351 123.023C95.8977 123.462 94.0365 122.997 92.0318 121.648C90.0284 120.299 87.9373 118.102 85.8873 115.198C81.7897 109.395 77.9206 100.863 75.272 90.9785C72.6234 81.0938 71.7082 71.7705 72.3551 64.6958C72.6788 61.1564 73.391 58.2077 74.4518 56.0383C75.5133 53.8675 76.8927 52.5342 78.5301 52.0954C80.1675 51.6567 82.0288 52.1216 84.0334 53.4709C86.0368 54.8193 88.128 57.0168 90.178 59.9202C94.2756 65.7236 98.1446 74.2554 100.793 84.1401Z" fill="#FFED91" stroke="black"/>
<path d="M97.0099 85.154C99.6619 95.0513 101.002 104.278 101.033 111.187C101.048 114.646 100.736 117.495 100.112 119.549C99.4791 121.634 98.5777 122.744 97.5357 123.023C96.4937 123.302 95.1579 122.791 93.5677 121.303C92.0005 119.836 90.305 117.525 88.5891 114.522C85.161 108.522 81.7084 99.8619 79.0564 89.9646C76.4045 80.0673 75.0643 70.8408 75.0334 63.9311C75.0179 60.4725 75.3308 57.6235 75.9545 55.5692C76.5873 53.485 77.4886 52.3746 78.5307 52.0954C79.5727 51.8162 80.9084 52.3271 82.4986 53.8157C84.0659 55.2829 85.7613 57.5938 87.4773 60.5968C90.9053 66.5962 94.3579 75.2567 97.0099 85.154Z" fill="#FFED91" stroke="black"/>
<path d="M93.2256 86.1679C95.8808 96.0771 97.6473 105.207 98.3597 111.955C98.7163 115.332 98.8062 118.09 98.6193 120.042C98.5255 121.02 98.3648 121.766 98.1514 122.277C97.9334 122.799 97.7048 122.978 97.5353 123.023C97.3657 123.069 97.0785 123.028 96.6284 122.685C96.188 122.349 95.6763 121.784 95.1057 120.983C93.9678 119.386 92.6669 116.953 91.287 113.85C88.5304 107.65 85.4951 98.86 82.8399 88.9507C80.1847 79.0414 78.4182 69.9111 77.7058 63.1639C77.3491 59.7864 77.2592 57.0289 77.4462 55.077C77.5399 54.0981 77.7007 53.3531 77.9141 52.8419C78.1321 52.3194 78.3607 52.1409 78.5302 52.0954C78.6998 52.05 78.987 52.0903 79.4371 52.4338C79.8774 52.7698 80.3892 53.3346 80.9598 54.1355C82.0977 55.7324 83.3986 58.1654 84.7785 61.2688C87.5351 67.4683 90.5704 76.2586 93.2256 86.1679Z" fill="#FFED91" stroke="black"/>
<path d="M86.6239 87.9369C89.2821 97.8576 91.8994 106.779 93.9813 113.181C95.0229 116.384 95.9277 118.949 96.6347 120.691C96.9008 121.346 97.1353 121.876 97.3352 122.276C97.3083 121.83 97.2464 121.253 97.149 120.553C96.8904 118.691 96.3919 116.018 95.6924 112.723C94.294 106.137 92.1001 97.1026 89.4418 87.1818C86.7836 77.261 84.1663 68.3399 82.0844 61.9372C81.0429 58.7343 80.1381 56.17 79.431 54.4281C79.1649 53.7726 78.9305 53.2427 78.7305 52.8426C78.7574 53.289 78.8194 53.8652 78.9167 54.5659C79.1753 56.4279 79.6738 59.1011 80.3734 62.3957C81.7717 68.9815 83.9656 78.0161 86.6239 87.9369Z" fill="#FFED91" stroke="black"/>
<path d="M61.887 105.269C71.1094 121.343 85.4848 119.672 85.4848 119.672C85.4848 119.672 74.3104 115.666 71.4787 105.098C69.557 94.2841 67.4554 90.0313 61.7964 91.5476C59.078 92.276 56.5705 96.0024 61.887 105.269Z" fill="white" fill-opacity="0.7"/>
</svg>
